<svg id="Layer_1" data-name="Layer 1" xmlns="http://www.w3.org/2000/svg" viewBox="0 0 512 512"><title>plus</title><path d="M174,212.24c.13-1.2.26-2.33.39-3.39.53-4.2,1.09-7.1,1.68-8.26,0,0-.1,1.2-.29,3.3-.08,1-.2,2.31-.32,3.79l-.2,2.33-.11,1.27-.06.66v.31c63.4,0,17.58,0,31.73,0l0-.34c.61-7.24,1.4-16.93,2.12-26.77,1.44-19.68,2.6-40,1.52-42.39,0,0-1.41,18.26-3.35,37.21-1,9.47-2.07,19.14-3.21,26.76-.29,1.91-.57,3.69-.85,5.31l0,.16,0,.07c-48.26,0-13.38,0-24.15,0v0l.06-.31.1-.59.22-1.12.42-2a15.77,15.77,0,0,1,1.68-5s-.1,1.1-.27,3.05c-.08,1-.19,2.15-.29,3.53l-.17,2.18,0,.29v0c-18.49,0,25.19,0,20.69,0V212l0-.59.09-1.24c.52-6.74,1.14-15.8,1.6-25,.92-18.49,1.13-37.76-1.65-40.93,0,0-1.47,16.3-3.64,33.59-1.07,8.64-2.34,17.52-3.66,24.75-.66,3.6-1.35,6.8-2,9.35-3.76-1.18.15-4-.15-4.73,0,0-.14.79-.34,2,.18.61-1.11,4.75-.57,1.45.46-3.55.85-7.51.5-9.17l-1.66,5.81.23-9.38,1.27-5.42s-3.79,14.68-5.73,15.72c0,0,2.31,6.71,1.45-19.81,0,0,13.38-62.72-17.84-156.38,0,0-8.1-1.06,5.51-1l10.91-.44,8-1.06,7.94.31s2.28,2.79,6.82,33.91A94.11,94.11,0,0,1,212.94,93s-.59,30.43-1.77,62c-.59,15.79-1.33,31.87-2.23,44.57-.23,3.16-.46,6.14-.7,8.84l-.19,2-.09.95,0,.46,0,.23v.19" fill="#231f20"/><path d="M23.7,228s-.94,8.27-.88-5.63l-.39-11.15-.93-8.15.28-8.13s2.47-2.32,29.89-6.94a72.49,72.49,0,0,1,25.77-4.65s107.31,2.39,115.36,7.28c0,0-67.28-7-71.52-4.77,0,0,64.34,5.73,69.28,10.16,0,0-62.41-6.56-68-.89,0,0,57.45,6,64.4,11.67,0,0-11-2.26-14-1.57l5.14,1.71-8.28-.24-4.78-1.3s12.94,3.87,13.85,5.84c0,0,5.91-2.36-17.46-1.48C161.5,209.77,106.23,196.1,23.7,228Z" fill="#231f20"/><path d="M2.39,213.7s-8.09-.49,5.51-.46l10.9-.19,8-.5,7.94.14S37,214,41.56,228.51a24.27,24.27,0,0,1,4.54,13.63S43.75,298.93,39,303.19c0,0,6.85-35.61,4.67-37.85,0,0-5.61,34-9.95,36.67,0,0,6.42-33,.87-36,0,0-5.9,30.4-11.42,34.08,0,0,2.2-5.86,1.53-7.4L23,295.44l.22-4.38,1.27-2.52s-3.79,6.85-5.72,7.34c0,0,2.3,3.13,1.44-9.24C20.23,286.63,33.62,257.38,2.39,213.7Z" fill="#231f20"/><path d="M36.24,324.49s-.92,8.27-.86-5.63L35,307.72l-.92-8.16.27-8.11s2.42-2.32,29.36-7A70.12,70.12,0,0,1,89,279.84s105.39,2.4,113.31,7.3c0,0-66.08-7-70.25-4.76,0,0,63.19,5.72,68,10.15,0,0-61.3-6.55-66.75-.87,0,0,56.42,6,63.24,11.65,0,0-10.82-2.24-13.71-1.55l5,1.68-8.13-.23-4.69-1.3s12.71,3.89,13.6,5.85c0,0,5.8-2.35-17.15-1.47C171.58,306.27,117.29,292.61,36.24,324.49Z" fill="#231f20"/><path d="M185,295.92s-8.1-1.13,5.51-1l10.89-.44,8-1.13,7.94.34s2.27,2.91,6.81,35.44a102.06,102.06,0,0,1,4.54,30.56s-2.35,127.27-7.14,136.83c0,0,6.84-79.79,4.67-84.84,0,0-5.6,76.32-9.94,82.17,0,0,6.41-74,.87-80.6,0,0-5.91,68.13-11.42,76.38,0,0,2.2-13.08,1.53-16.56l-1.66,6.09.24-9.83,1.27-5.65s-3.79,15.35-5.71,16.43c0,0,2.3,7,1.43-20.72C202.82,459.36,216.2,393.81,185,295.92Z" fill="#231f20"/><path d="M335.43,488.75s8.09,1.14-5.52,1.08l-10.9.45-8,1.16-7.94-.34s-2.27-3-6.81-36.55a108,108,0,0,1-4.54-31.49s.59-32.82,1.78-66.83c.59-17,1.33-34.33,2.22-48,.22-3.42.45-6.61.69-9.51l.19-2.14.05-.5,0-.13v0c68.15,0,18.88,0,34.1,0v0l0,.25-.09,1-.1,1-.05.48,0,.23,0,.12v.07c-14.94,0,33.42,0-33.48,0l.19-1.78c.52-4.52,1.08-7.65,1.68-8.88,0,0-.1,1.29-.29,3.54-.09,1.14-.2,2.5-.32,4.08l-.2,2.51,0,.35v.16c-28.11,0,38.25,0,31.42,0V299l.06-.69.11-1.43.06-.74,0-.19c28.54,0-38.88,0-31.94,0v.15l0,.39-.13,1.55-.24,3.27c-.17,2.24-.35,4.61-.53,7.05-.36,4.91-.75,10.19-1.1,15.48-1.43,21.22-2.61,43.05-1.51,45.65,0,0,1.4-19.65,3.33-40.06,1-10.23,2.09-20.62,3.22-28.85l.43-3,.22-1.41,0-.17,0-.08c-22,0,29.92,0,24.57,0V296l-.06.34-.1.67-.22,1.27-.1.62,0,.15v.08c5.12,0-44.49,0-23.49,0v0l.06-.3.43-2.21a17.74,17.74,0,0,1,1.66-5.35l-.26,3.28c-.08,1.06-.18,2.32-.29,3.79l0,.56v.27c40.79,0,11.31,0,20.4,0l0-.29.08-1.2.09-1.26,0-.33v-.09c4.54,0-39.54,0-20.88,0v.2l0,.67c-.52,7.27-1.14,17-1.6,27-.91,19.93-1.13,40.7,1.65,44.08,0,0,1.47-17.55,3.64-36.19,1.08-9.29,2.33-18.87,3.66-26.64.33-2,.67-3.79,1-5.49l.5-2.41.27-1.13v-.08c5.37,0,1.5,0,2.69,0v0l0,.13-.06.27-.13.52-.52,1.9c-2.21.81-.31-.75-.67-.91a10.69,10.69,0,0,1,1-2.29s-.14.82-.34,2.15l-.15,1.08,0,.29c-1.72,0-.45-.17-.82-.24l.08-.63c.07-.48.35-2.6.25-1.91-.47,3.84-.85,8.1-.52,9.9l1.68-6.28L314.58,310l-1.27,5.84S317.11,300,319,298.94c0,0-2.3-7.22-1.44,21.35C317.59,320.29,304.21,387.85,335.43,488.75Z" fill="#231f20"/><path d="M322.66,208.7s-.9,8.27-.85-5.63l-.37-11.13-.9-8.18.27-8.11s2.38-2.33,28.82-7a68,68,0,0,1,24.84-4.63s103.47,2.39,111.25,7.3c0,0-64.86-7-69-4.79,0,0,62.05,5.73,66.82,10.16,0,0-60.19-6.55-65.54-.89,0,0,55.4,6,62.1,11.67,0,0-10.64-2.25-13.48-1.55l5,1.69-8-.24-4.59-1.3s12.48,3.86,13.35,5.84c0,0,5.69-2.35-16.83-1.48C455.55,190.47,402.24,176.81,322.66,208.7Z" fill="#231f20"/><path d="M292,22.05s-8.09-.94,5.51-.89l10.91-.4,8-1,8,.3s2.27,2.51,6.8,30.53A77,77,0,0,1,335.71,77s-2.35,109.64-7.14,117.88c0,0,6.85-68.76,4.68-73.09,0,0-5.62,65.74-9.95,70.8,0,0,6.41-63.78.86-69.45,0,0-5.89,58.7-11.41,65.79,0,0,2.21-11.26,1.53-14.26l-1.67,5.25.23-8.44,1.28-4.89s-3.79,13.24-5.72,14.15c0,0,2.31,6,1.45-17.85C309.85,162.87,323.23,106.4,292,22.05Z" fill="#231f20"/><path d="M304.26,321.29s-1.07,8.27-1-5.64l-.45-11.14-1.07-8.16.32-8.11s2.81-2.33,34.16-7a93.37,93.37,0,0,1,29.44-4.64s122.63,2.4,131.85,7.3c0,0-76.88-7-81.74-4.76,0,0,73.55,5.72,79.19,10.14,0,0-71.33-6.55-77.67-.88,0,0,65.65,6,73.6,11.67,0,0-12.6-2.26-16-1.56l5.87,1.7-9.47-.25-5.45-1.28s14.79,3.87,15.84,5.84c0,0,6.75-2.36-20-1.48C461.76,303.06,398.58,289.39,304.26,321.29Z" fill="#231f20"/><path d="M468.3,184.77s-8.1-.6,5.52-.57l10.9-.24,8-.61,7.94.18s2.27,1.58,6.81,19.14A33.28,33.28,0,0,1,512,219.19s-2.34,68.71-7.12,73.87c0,0,6.83-43.08,4.66-45.81,0,0-5.6,41.21-9.95,44.37,0,0,6.42-40,.88-43.52,0,0-5.91,36.77-11.42,41.23,0,0,2.2-7.05,1.52-8.94l-1.66,3.27.23-5.28,1.28-3.07s-3.79,8.31-5.72,8.88c0,0,2.31,3.79,1.44-11.19C486.13,273,499.52,237.62,468.3,184.77Z" fill="#231f20"/><path d="M189.81,44.66s-.69,8.27-.65-5.64l-.28-11.14-.68-8.17.2-8.11s1.81-2.32,21.88-7A41.31,41.31,0,0,1,229.15,0s78.56,2.4,84.46,7.29c0,0-49.26-7-52.37-4.77,0,0,47.12,5.73,50.72,10.16,0,0-45.68-6.57-49.75-.89,0,0,42.06,6,47.14,11.67,0,0-8.06-2.26-10.22-1.56l3.76,1.69-6.06-.24-3.49-1.3s9.48,3.88,10.13,5.86c0,0,4.33-2.36-12.79-1.48C290.69,26.43,250.23,12.76,189.81,44.66Z" fill="#231f20"/><path d="M199.2,509.56s-.66,8.27-.62-5.64l-.27-11.13-.67-8.18.2-8.1s1.76-2.32,21.34-7a39.69,39.69,0,0,1,18.42-4.62s76.65,2.37,82.4,7.29c0,0-48.06-7-51.09-4.78,0,0,46,5.73,49.49,10.15,0,0-44.58-6.56-48.56-.87,0,0,41,6,46,11.66,0,0-7.88-2.24-10-1.57l3.67,1.69-5.91-.23-3.41-1.3s9.24,3.87,9.88,5.84c0,0,4.22-2.36-12.46-1.48C297.64,491.32,258.16,477.67,199.2,509.56Z" fill="#231f20"/></svg>